<svg width="100" height="100" viewBox="0 0 100 100" fill="none" xmlns="http://www.w3.org/2000/svg">
<path fill-rule="evenodd" clip-rule="evenodd" d="M81.25 48.9583H75C71.5479 48.9583 68.75 50.7146 68.75 54.1667V55.0542C70.4158 56.5433 71.7435 58.3717 72.6437 60.4167H87.5V54.1667C87.5 50.7146 84.7021 48.9583 81.25 48.9583ZM31.25 55.0542V54.1667C31.25 50.7146 28.4521 48.9583 25 48.9583H18.75C15.2979 48.9583 12.5 50.7146 12.5 54.1667V60.4167H27.3562C28.2565 58.3717 29.5842 56.5433 31.25 55.0542V55.0542ZM78.0854 45.8333C79.743 45.8438 81.3369 45.1954 82.5164 44.0307C83.6959 42.8661 84.3645 41.2805 84.375 39.6229C84.3855 37.9653 83.7371 36.3714 82.5724 35.1919C81.4077 34.0124 79.8222 33.3438 78.1646 33.3333C77.3438 33.3281 76.5301 33.4846 75.7698 33.7939C75.0095 34.1032 74.3176 34.5592 73.7336 35.1359C73.1495 35.7126 72.6848 36.3987 72.3659 37.155C72.047 37.9113 71.8802 38.723 71.875 39.5438C71.8698 40.3645 72.0263 41.1783 72.3356 41.9385C72.6449 42.6988 73.1009 43.3907 73.6776 43.9748C74.2543 44.5588 74.9404 45.0235 75.6967 45.3424C76.453 45.6613 77.2647 45.8281 78.0854 45.8333V45.8333ZM21.8354 45.8333C22.6562 45.8385 23.4699 45.682 24.2302 45.3727C24.9905 45.0634 25.6824 44.6074 26.2664 44.0307C26.8505 43.4541 27.3152 42.768 27.6341 42.0117C27.953 41.2554 28.1198 40.4437 28.125 39.6229C28.1302 38.8022 27.9737 37.9884 27.6644 37.2281C27.3551 36.4679 26.8991 35.7759 26.3224 35.1919C25.7457 34.6079 25.0596 34.1431 24.3033 33.8242C23.547 33.5053 22.7353 33.3385 21.9146 33.3333C20.257 33.3228 18.6631 33.9712 17.4836 35.1359C16.304 36.3006 15.6355 37.8861 15.625 39.5438C15.6145 41.2014 16.2629 42.7952 17.4276 43.9748C18.5923 45.1543 20.1778 45.8228 21.8354 45.8333V45.8333ZM37.5 34.375C37.5 41.2687 43.1062 46.875 50 46.875C56.5458 46.875 61.9229 41.8146 62.4479 35.4042C60.4721 35.3107 58.5913 34.5287 57.1317 33.1939C55.672 31.859 54.7255 30.0554 54.4562 28.0958C53.3062 32.3271 49.4479 34.8125 44.8542 34.8125C42.025 34.8125 39.6062 34.2271 37.6771 32.3583C37.5642 33.0247 37.5049 33.6991 37.5 34.375V34.375ZM34.375 34.375C34.375 25.7604 41.3833 18.75 50 18.75C58.6167 18.75 65.625 25.7604 65.625 34.375C65.625 42.9896 58.6167 50 50 50C41.3833 50 34.375 42.9896 34.375 34.375ZM60.6979 54.3958C58.9979 59.1833 56.5542 63.7542 54.4292 67.2812L51.8333 60.7937L53.1875 59.4375C53.4195 59.206 53.5727 58.9074 53.6255 58.5839C53.6782 58.2604 53.6277 57.9286 53.4812 57.6354L51.7479 54.1667H48.2521L46.5187 57.6354C46.3723 57.9286 46.3218 58.2604 46.3745 58.5839C46.4273 58.9074 46.5805 59.206 46.8125 59.4375L48.1667 60.7937L45.5771 67.2708C43.4521 63.7417 41.0104 59.1708 39.3063 54.3958C38.5234 54.5509 37.7574 54.7811 37.0187 55.0833C40.0979 65.1083 47.1708 75.0125 50.0021 78.7229C52.8354 75.0187 59.9188 65.1229 62.9812 55.0833C62.2437 54.7821 61.4792 54.5519 60.6979 54.3958V54.3958ZM29.1667 66.6667V81.25H48C45.5104 78.0729 37.8146 67.6875 34.25 56.6625C31.1833 58.9396 29.1667 62.5521 29.1667 66.6667ZM70.8333 66.6667V81.25H52.0021C54.5021 78.0729 62.2 67.7125 65.7521 56.6646C68.8187 58.9396 70.8333 62.5521 70.8333 66.6667Z" fill="#14CEFF"/>
</svg>
