<svg width="100" height="100" viewBox="0 0 100 100" fill="none" xmlns="http://www.w3.org/2000/svg">
<path d="M81.2511 30.7196C85.0954 24.2378 80.2412 16.1234 72.8877 16.2268C72.9838 8.82351 64.8494 3.98619 58.3797 7.86265C56.686 4.87422 53.5091 2.96687 49.9934 2.96687C46.49 2.96687 43.3192 4.8704 41.624 7.85197C35.1399 3.98934 27.02 8.83376 27.1159 16.2267C19.7407 16.1352 14.921 24.213 18.7648 30.7157C15.7771 32.398 13.8698 35.5696 13.8698 39.0913C13.8698 42.6161 15.771 45.7907 18.7526 47.4775C14.9995 53.7835 19.458 61.9688 27.119 61.9688C27.0991 64.1139 27.8377 66.2266 29.178 67.9542C29.1697 67.9523 29.1609 67.9509 29.1526 67.949C23.9806 75.6209 18.3869 83.1209 15.2776 91.5272C15.215 91.6522 15.34 91.7615 15.4494 91.6834C18.9963 89.6365 22.8557 87.699 26.887 85.824C26.9651 85.7928 27.0588 85.824 27.0588 85.9178C27.762 89.5115 28.6057 93.1678 29.7775 96.949C29.8088 97.0584 29.9807 97.0584 30.0276 96.9647C33.1821 88.4659 38.8554 80.8817 44.0667 73.1548C46.5441 75.0903 49.8178 75.8663 53.163 74.69C58.0845 81.8887 63.2169 89.0247 66.1681 96.9647C66.1994 97.0584 66.3713 97.0584 66.4025 96.949C67.5744 93.1678 68.4338 89.5115 69.1213 85.9178C69.1213 85.824 69.2307 85.7928 69.2931 85.824C73.3401 87.699 77.1995 89.6365 80.7463 91.6834C80.84 91.7615 80.9651 91.6522 80.9182 91.5272C78.0686 83.933 73.2341 77.0589 68.4967 70.1356C71.2896 68.3137 72.9255 65.2327 72.8862 61.968C80.263 62.1156 85.1032 53.9037 81.2587 47.4737C87.7536 43.7935 87.7571 34.3909 81.2511 30.7196ZM78.5838 45.2627L77.7873 45.439C77.6953 45.8973 76.8739 46.9294 77.8133 48.0528C81.9644 52.6505 77.7874 59.9981 71.6685 58.7057C70.1816 58.3367 69.5896 59.8641 69.2805 60.1408L69.6529 60.8908C70.7864 67.0384 63.4913 71.0146 58.9122 66.8722C57.8339 65.9696 56.6797 66.8564 56.3167 66.9348L56.1549 67.7076C54.0897 73.6285 45.804 73.4748 43.835 67.7023L43.6534 66.9058L42.802 66.5884C42.2191 66.3717 41.5706 66.49 41.0533 66.9241C38.5312 69.1875 34.3703 69.2501 31.834 66.3183C30.5156 64.7924 29.9724 62.7325 30.3706 60.7931C30.5263 60.2529 30.4042 59.667 30.0273 59.2344L29.1972 58.4135L28.2954 58.7141C22.1924 59.9466 18.0303 52.6641 22.2331 48.0055C22.636 47.5217 22.7519 46.8641 22.5368 46.2888L22.1263 45.3649L21.3588 45.2413C18.7434 44.3266 16.9948 41.8707 16.9948 39.0913C16.9948 36.2836 18.7923 33.8041 21.4809 32.9183C22.813 32.4677 22.6307 31.0668 22.7397 30.7569L22.195 30.1511C17.9985 25.47 22.3286 18.1963 28.3336 19.4936C29.821 19.8609 30.4225 18.3121 30.7231 18.0395L30.3508 17.2903C29.2408 11.296 36.4201 7.13417 41.0533 11.2936L41.2288 11.4286C41.7277 11.7636 42.3472 11.8238 42.892 11.5865L43.7465 11.1517L43.8609 10.4437C44.7932 7.8352 47.2423 6.09187 49.9934 6.09187C52.7858 6.09187 55.2623 7.87715 56.1702 10.5383L56.3457 11.2768C56.7542 11.3826 57.7098 12.1661 58.7764 11.4462L58.9549 11.3073C61.05 9.41447 64.0864 9.09251 66.5156 10.5062C68.9006 11.8948 70.1747 14.7169 69.6345 17.3925C69.2527 18.7142 70.5161 19.3799 70.811 19.7897L71.7158 19.4837C77.7747 18.2255 81.9257 25.5567 77.8682 30.0894C76.8738 31.0837 77.6586 32.2789 77.7034 32.6475L78.5365 32.9222C84.4683 34.8769 84.4922 43.2643 78.5838 45.2627Z" fill="#FF2FA2"/>
<path d="M49.9963 17.1209C37.8557 17.1209 28.0119 26.9647 28.0119 39.1053C28.0119 51.2459 37.8557 61.0897 49.9963 61.0897C62.137 61.0897 71.9963 51.2459 71.9963 39.1053C71.9963 26.9647 62.137 17.1209 49.9963 17.1209ZM64.1526 35.9021L57.2307 42.7303C57.1994 42.7615 57.1994 42.7928 57.1994 42.8241L58.9026 52.4021C58.9182 52.496 58.8401 52.5428 58.7619 52.5115L50.1213 48.0272C50.0901 48.0115 50.0588 48.0115 50.0276 48.0272L41.4338 52.6209C41.3713 52.6522 41.2775 52.5897 41.2932 52.5115L42.887 42.9022C42.887 42.8709 42.8713 42.8396 42.8557 42.8241L35.8401 36.0741C35.7932 36.0115 35.8088 35.9177 35.9025 35.9021L45.5276 34.449C45.5589 34.4334 45.5744 34.4178 45.59 34.3865L49.8557 25.6366C49.8869 25.5584 49.9963 25.5584 50.0276 25.6366L54.3869 34.3396C54.4026 34.3709 54.4339 34.3865 54.4651 34.3865L64.1057 35.7303C64.1838 35.7459 64.215 35.8397 64.1526 35.9021Z" fill="#FF2FA2"/>
</svg>
