<svg width="100" height="100" viewBox="0 0 100 100" fill="none" xmlns="http://www.w3.org/2000/svg">
<path d="M45.422 77.766H54.58C55.298 77.766 55.88 77.184 55.88 76.466V75.236H84.488C85.206 75.236 85.788 74.654 85.788 73.936V27.756C85.788 27.038 85.206 26.456 84.488 26.456H79.992V23.536C79.992 22.818 79.41 22.236 78.692 22.236H54.222C52.52 22.236 51.014 23.026 50 24.242C48.986 23.028 47.48 22.236 45.778 22.236H21.308C20.59 22.236 20.008 22.818 20.008 23.536V26.456H15.512C14.794 26.456 14.212 27.038 14.212 27.756V73.934C14.212 74.652 14.794 75.234 15.512 75.234H44.122V76.464C44.122 77.184 44.704 77.766 45.422 77.766ZM54.222 24.836H77.39V66.934H54.222C53.126 66.934 52.138 67.184 51.3 67.614V27.756C51.3 26.144 52.612 24.836 54.222 24.836ZM22.61 24.836H45.778C47.39 24.836 48.7 26.144 48.7 27.756V67.614C47.862 67.184 46.874 66.934 45.778 66.934H22.61V24.836ZM16.812 72.632V29.056H20.008V68.234C20.008 68.952 20.59 69.534 21.308 69.534H45.776C47.08 69.534 48.096 70.03 48.492 70.864C48.714 71.332 49.182 71.606 49.666 71.606C49.716 71.606 49.764 71.578 49.812 71.572C49.874 71.582 49.932 71.61 49.998 71.61C50.064 71.61 50.12 71.582 50.184 71.572C50.234 71.578 50.282 71.606 50.33 71.606C50.814 71.606 51.282 71.332 51.504 70.864C51.9 70.03 52.916 69.534 54.22 69.534H78.688C79.406 69.534 79.988 68.952 79.988 68.234V29.056H83.184V72.632H54.58C53.862 72.632 53.28 73.214 53.28 73.932V75.162H46.724V73.932C46.724 73.214 46.142 72.632 45.424 72.632H16.812ZM58.114 36.036C58.114 35.318 58.696 34.736 59.414 34.736H70.78C71.498 34.736 72.08 35.318 72.08 36.036C72.08 36.754 71.498 37.336 70.78 37.336H59.414C58.696 37.336 58.114 36.754 58.114 36.036ZM58.114 45.426C58.114 44.708 58.696 44.126 59.414 44.126H70.78C71.498 44.126 72.08 44.708 72.08 45.426C72.08 46.144 71.498 46.726 70.78 46.726H59.414C58.696 46.726 58.114 46.144 58.114 45.426ZM58.114 54.818C58.114 54.1 58.696 53.518 59.414 53.518H70.78C71.498 53.518 72.08 54.1 72.08 54.818C72.08 55.536 71.498 56.118 70.78 56.118H59.414C58.696 56.12 58.114 55.538 58.114 54.818ZM28.676 36.036C28.676 35.318 29.258 34.736 29.976 34.736H41.342C42.06 34.736 42.642 35.318 42.642 36.036C42.642 36.754 42.06 37.336 41.342 37.336H29.976C29.258 37.336 28.676 36.754 28.676 36.036ZM28.676 45.426C28.676 44.708 29.258 44.126 29.976 44.126H41.342C42.06 44.126 42.642 44.708 42.642 45.426C42.642 46.144 42.06 46.726 41.342 46.726H29.976C29.258 46.726 28.676 46.144 28.676 45.426ZM28.676 54.818C28.676 54.1 29.258 53.518 29.976 53.518H41.342C42.06 53.518 42.642 54.1 42.642 54.818C42.642 55.536 42.06 56.118 41.342 56.118H29.976C29.258 56.12 28.676 55.538 28.676 54.818Z" fill="#14CEFF"/>
</svg>
