<?xml version="1.0" encoding="UTF-8" standalone="no"?>
<svg
   width="300.000000pt"
   height="135.000000pt"
   viewBox="0 0 300.000000 135.000000"
   version="1.1"
   id="svg3748"
   sodipodi:docname="logo.svg"
   inkscape:version="1.2.1 (9c6d41e410, 2022-07-14)"
   xmlns:inkscape="http://www.inkscape.org/namespaces/inkscape"
   xmlns:sodipodi="http://sodipodi.sourceforge.net/DTD/sodipodi-0.dtd"
   xmlns="http://www.w3.org/2000/svg"
   xmlns:svg="http://www.w3.org/2000/svg">
  <defs
     id="defs3752" />
  <sodipodi:namedview
     id="namedview3750"
     pagecolor="#ffffff"
     bordercolor="#000000"
     borderopacity="0.25"
     inkscape:showpageshadow="2"
     inkscape:pageopacity="0.0"
     inkscape:pagecheckerboard="0"
     inkscape:deskcolor="#d1d1d1"
     inkscape:document-units="pt"
     showgrid="false"
     inkscape:zoom="3.37"
     inkscape:cx="200"
     inkscape:cy="88.130564"
     inkscape:window-width="1920"
     inkscape:window-height="1027"
     inkscape:window-x="-8"
     inkscape:window-y="-8"
     inkscape:window-maximized="1"
     inkscape:current-layer="svg3748" />
  <g
     transform="translate(0.000000,135.000000) scale(0.100000,-0.100000)"
     fill="#fefefe"
     stroke="none"
     id="g1888">
    <path
       d="M0 675 l0 -675 1500 0 1500 0 0 675 0 675 -1500 0 -1500 0 0 -675z m409 392 c28 -101 51 -189 51 -195 0 -7 6 -12 13 -12 l13 0 24 175 24 174 25 -6 c14 -3 28 -7 30 -9 3 -3 -24 -209 -35 -266 l-6 -28 14 0 15 0 23 49 23 49 23 -10 c13 -6 24 -16 24 -21 0 -6 -27 -61 -60 -124 -33 -62 -60 -119 -60 -127 0 -8 6 -16 13 -19 8 -3 63 -8 124 -12 61 -4 116 -11 123 -15 l13 -8 -7 -25 -6 -26 -85 6 -85 6 0 -15 0 -16 100 -74 99 -75 -15 -22 -15 -21 -29 20 c-31 22 -50 26 -50 9 0 -6 28 -46 63 -88 35 -42 66 -81 70 -87 l7 -11 -19 -17 -19 -17 -117 143 c-104 127 -145 167 -145 141 0 -4 24 -93 54 -196 l53 -189 -25 -9 -25 -10 -6 10 c-3 5 -28 91 -56 190 l-50 181 -11 0 -12 0 -12 -87 c-7 -49 -18 -124 -24 -168 l-12 -80 -24 3 c-13 1 -26 5 -28 7 -3 3 2 58 11 122 10 65 17 126 17 136 0 30 -26 18 -49 -23 l-22 -39 -24 11 -24 11 67 133 c36 73 63 136 59 140 -4 4 -64 12 -135 18 l-127 11 0 30 0 30 88 -4 87 -3 0 15 c0 8 -45 47 -100 87 -55 41 -100 76 -100 80 0 4 8 14 18 23 l17 15 19 -14 c24 -17 46 -18 46 -3 0 6 -30 47 -66 91 l-67 79 20 20 19 20 115 -141 c63 -77 120 -140 126 -140 7 0 13 7 13 15 0 12 -79 306 -95 353 l-5 13 23 9 c12 5 25 9 28 9 4 1 30 -82 58 -182z m781 -2 l0 -75 10 0 c6 0 19 9 30 20 l20 20 39 0 38 0 28 -22 c55 -43 70 -129 36 -204 l-18 -41 -37 -17 -37 -17 -34 11 c-19 6 -37 16 -40 21 -10 15 -35 10 -35 -6 l0 -15 -30 0 -30 0 0 200 0 200 30 0 30 0 0 -75z m990 -35 l0 -110 14 0 c8 0 36 25 63 55 l48 55 28 0 28 0 -50 -58 c-28 -32 -51 -64 -51 -70 0 -7 25 -46 55 -87 l56 -75 -33 1 -33 0 -43 60 -43 60 -17 -3 -17 -3 -3 -58 -3 -57 -29 0 -30 0 0 200 0 200 30 0 30 0 0 -110z m432 -27 c29 -26 48 -67 48 -103 l0 -30 -105 0 -105 0 0 -16 c0 -19 19 -56 34 -66 6 -4 30 -8 53 -8 l43 0 12 20 13 20 22 0 23 0 0 -13 c0 -21 -43 -56 -81 -67 -69 -20 -136 13 -164 82 l-17 42 7 44 6 43 31 34 c16 19 44 39 62 43 39 11 91 0 118 -25z m-1082 -88 l0 -114 19 -11 c31 -16 69 -12 91 10 l20 20 0 105 0 105 30 0 30 0 0 -145 0 -145 -30 0 -30 0 0 15 c0 19 -24 20 -39 1 -7 -8 -23 -17 -36 -20 l-25 -6 -34 14 c-19 8 -40 25 -47 38 -13 25 -26 207 -16 232 l6 16 31 0 30 0 0 -115z m320 100 c0 -19 19 -19 44 0 23 18 79 20 108 4 11 -6 26 -26 34 -44 l14 -34 0 -101 0 -100 -30 0 -30 0 0 103 0 103 -12 17 c-7 9 -27 20 -45 23 l-32 6 -25 -25 -26 -26 0 -101 0 -100 -30 0 -30 0 0 145 0 145 30 0 30 0 0 -15z m933 3 l4 -13 22 13 c11 6 30 12 41 12 l20 0 0 -25 0 -25 -29 0 c-16 0 -37 -7 -45 -16 l-16 -15 0 -105 0 -104 -30 0 -30 0 0 145 0 145 29 0 c16 0 31 -6 34 -12z m-863 -428 c0 -38 3 -70 7 -70 4 0 26 9 49 20 l42 21 25 -6 c14 -4 36 -18 49 -32 l23 -25 3 -119 4 -119 -31 0 -31 0 0 107 0 106 -17 19 -16 18 -33 0 -33 0 -20 -26 -21 -27 0 -98 0 -99 -30 0 -30 0 0 200 0 200 30 0 30 0 0 -70z m980 -130 l0 -200 -30 0 -30 0 0 200 0 200 30 0 30 0 0 -200z m-1476 86 c31 -13 66 -49 66 -68 0 -18 -44 -6 -66 17 -25 27 -53 32 -85 15 l-19 -11 0 -24 c0 -13 5 -27 11 -30 5 -4 38 -14 71 -23 l61 -17 20 -27 20 -27 -13 -31 c-7 -17 -25 -37 -41 -45 -15 -8 -51 -15 -80 -15 l-51 0 -36 38 -37 37 29 3 28 4 15 -21 14 -21 43 0 44 0 12 15 c6 8 10 22 8 32 l-3 18 -45 13 c-25 7 -60 20 -78 28 l-32 14 -12 26 -12 26 15 26 c15 28 71 62 102 62 10 0 33 -6 51 -14z m305 -2 c37 -15 71 -50 71 -74 0 -5 -9 -10 -21 -10 l-21 0 -20 25 -19 25 -38 0 -38 0 -18 -20 -18 -20 -5 -48 -4 -49 16 -31 16 -32 27 -6 c35 -9 76 6 88 34 l10 22 22 0 23 0 0 -16 c0 -9 -15 -31 -34 -50 l-34 -34 -48 0 -49 0 -31 19 c-57 35 -80 124 -50 194 16 39 45 65 82 77 42 12 49 12 93 -6z m669 -11 c29 -18 62 -87 62 -128 0 -16 -9 -49 -19 -72 l-19 -42 -31 -15 c-16 -9 -49 -16 -73 -16 l-43 0 -31 19 c-57 35 -80 124 -50 194 16 39 44 65 82 77 36 11 91 3 122 -17z m319 2 c13 -9 33 -30 43 -48 l20 -32 0 -51 0 -51 -23 -34 c-12 -18 -34 -39 -47 -46 -14 -7 -46 -13 -72 -13 l-47 0 -34 30 -35 30 -10 42 -11 43 8 35 c12 52 31 78 76 101 l40 20 34 -5 c18 -3 44 -12 58 -21z m-1534 -223 l17 -18 -13 -18 -13 -18 -20 4 c-23 4 -30 33 -14 53 16 19 23 19 43 -3z"
       id="path1878" />
    <path
       d="M1233 978 c-12 -6 -27 -23 -34 -39 l-12 -29 6 -47 5 -47 22 -18 c12 -10 35 -18 50 -18 15 0 38 8 50 18 l22 18 5 47 6 47 -13 31 -13 31 -24 9 c-30 11 -42 11 -70 -3z"
       id="path1880" />
    <path
       d="M2471 964 c-12 -15 -21 -33 -21 -40 l0 -14 75 0 75 0 0 20 c0 11 -9 29 -20 40 l-20 20 -34 0 -35 0 -20 -26z"
       id="path1882" />
    <path
       d="M2265 490 l-18 -20 -4 -53 -4 -52 13 -25 c16 -30 55 -45 91 -36 l27 6 16 32 16 31 -4 49 -5 48 -18 20 -18 20 -37 0 -37 0 -18 -20z"
       id="path1884" />
    <path
       d="M2598 499 c-23 -13 -40 -78 -32 -120 4 -19 16 -44 27 -56 l20 -23 29 0 29 0 24 25 25 24 0 51 c0 51 -12 88 -34 102 -16 11 -68 9 -88 -3z"
       id="path1886" />
  </g>
  <g
     transform="matrix(0.1,0,0,-0.1,-5.786346,135.89021)"
     fill="#373535"
     stroke="none"
     id="g1916">
    <path
       d="M 1120,940 V 730 h 40 40 v 14 14 l 37,-19 c 21,-10 46,-19 56,-19 10,0 35,8 54,17 l 36,16 18,41 19,41 v 47 c 0,83 -35,140 -97,157 l -33,9 -35,-9 c -19,-5 -39,-17 -44,-27 l -10,-17 -1,78 v 77 h -40 -40 z m 181,30 c 4,0 16,-14 25,-32 l 16,-31 -5,-41 -6,-41 -21,-17 c -28,-23 -52,-23 -79,0 l -22,17 -6,37 -6,38 12,29 c 13,30 47,53 69,45 8,-2 18,-4 23,-4 z"
       id="path1890" />
    <path
       d="M 2110,940 V 730 h 40 40 v 54 c 0,30 4,58 10,61 5,3 29,-21 52,-54 l 43,-60 h 43 l 42,-1 v 11 c 0,5 -25,44 -55,85 l -56,75 40,48 c 22,26 47,54 56,61 25,21 17,30 -26,30 h -42 l -53,-57 -53,-58 -1,113 v 112 h -40 -40 z"
       id="path1892" />
    <path
       d="m 1917,1040 c -16,-5 -35,-14 -43,-21 l -14,-11 v 16 16 h -40 -40 V 885 730 h 40 40 v 100 101 l 25,25 25,25 23,-6 c 12,-4 28,-14 35,-23 l 12,-16 V 833 730 h 40 40 v 110 111 l -14,34 c -20,48 -74,71 -129,55 z"
       id="path1894" />
    <path
       d="m 2484,1039 c -18,-5 -46,-25 -62,-44 l -31,-34 -7,-47 -7,-46 13,-41 c 6,-22 25,-53 41,-68 l 29,-27 39,-7 39,-6 39,10 c 42,12 77,42 88,79 l 6,22 h -38 -38 l -13,-20 -12,-20 h -33 c -17,0 -37,4 -43,8 -11,7 -34,45 -34,56 0,3 47,6 105,6 h 105 v 43 42 l -20,32 c -10,18 -29,38 -42,46 -31,20 -87,27 -124,16 z m 86,-79 c 11,-11 20,-24 20,-30 v -10 h -66 -65 l 7,13 c 29,50 70,61 104,27 z"
       id="path1896" />
    <path
       d="m 2835,1042 c -11,-2 -26,-9 -32,-14 l -13,-10 v 11 11 h -40 -40 V 885 730 h 40 40 v 104 105 l 16,15 c 8,9 29,16 45,16 h 29 v 34 34 l -12,4 c -7,2 -22,2 -33,0 z"
       id="path1898" />
    <path
       d="m 1453,1024 c -3,-8 -4,-64 -1,-124 l 4,-108 17,-25 c 9,-14 32,-31 52,-37 l 36,-12 27,7 c 15,4 35,14 45,22 l 17,16 v -16 -17 h 40 40 v 155 155 h -40 -40 V 935 830 l -20,-20 c -22,-22 -42,-25 -71,-10 l -19,11 v 114 115 h -40 -41 z"
       id="path1900" />
    <path
       d="M 1850,460 V 250 h 40 40 v 99 98 l 21,27 20,26 h 23 c 13,0 30,-8 39,-18 l 17,-19 V 357 250 h 41 41 l -4,129 -3,129 -24,26 c -13,14 -39,29 -57,32 l -34,6 -40,-20 -40,-19 v 68 69 h -40 -40 z"
       id="path1902" />
    <path
       d="M 2830,460 V 250 h 40 40 v 210 210 h -40 -40 z"
       id="path1904" />
    <path
       d="m 1314,556 c -58,-26 -81,-87 -49,-132 15,-23 44,-37 112,-54 23,-6 45,-15 48,-21 4,-5 1,-16 -5,-24 l -12,-15 h -34 -34 l -12,20 -13,20 h -37 -38 v -16 c 0,-9 15,-31 34,-50 l 34,-34 33,-2 c 87,-4 134,12 154,53 20,38 19,62 -5,92 l -20,25 -52,12 c -66,16 -88,27 -88,45 0,20 36,38 60,30 11,-4 25,-15 30,-26 l 11,-19 h 34 35 v 18 c 0,45 -66,92 -127,92 -15,-1 -42,-7 -59,-14 z"
       id="path1906" />
    <path
       d="m 1626,560 c -61,-19 -96,-76 -96,-156 0,-59 25,-111 64,-135 l 31,-19 h 56 56 l 28,22 c 23,18 55,72 55,93 0,3 -18,5 -40,5 h -40 v -15 c 0,-8 -11,-22 -25,-31 l -25,-16 -25,6 -25,6 -16,32 -16,31 5,39 c 3,22 13,48 23,59 l 17,19 h 28 28 l 19,-25 20,-25 h 35 35 l -6,23 c -10,40 -32,65 -73,81 -43,17 -69,19 -113,6 z"
       id="path1908" />
    <path
       d="m 2266,560 c -61,-19 -96,-76 -96,-157 v -48 l 19,-35 c 10,-19 33,-43 50,-54 l 32,-18 h 48 48 l 32,17 33,16 19,42 c 10,23 19,60 19,82 0,50 -31,119 -62,139 -30,20 -104,28 -142,16 z m 98,-79 c 10,-11 20,-37 23,-59 l 5,-39 -16,-31 -16,-32 -25,-6 -25,-6 -25,16 -24,16 -7,35 c -12,68 18,125 66,125 h 27 z"
       id="path1910" />
    <path
       d="m 2575,550 c -45,-22 -69,-56 -79,-112 l -7,-37 12,-44 11,-45 29,-28 28,-27 38,-7 c 47,-8 111,6 136,28 11,9 25,29 33,44 l 14,27 v 59 59 l -23,34 c -26,39 -79,69 -122,69 -16,0 -48,-9 -70,-20 z m 101,-58 c 20,-13 34,-50 34,-92 v -41 l -25,-24 c -13,-14 -33,-25 -43,-25 -58,0 -89,123 -42,170 20,20 56,26 76,12 z"
       id="path1912" />
    <path
       d="m 1131,326 c -7,-8 -11,-27 -9,-43 l 3,-28 32,-3 33,-3 12,25 11,26 -18,20 c -21,24 -48,26 -64,6 z"
       id="path1914" />
  </g>
  <g
     transform="translate(0.000000,135.000000) scale(0.100000,-0.100000)"
     fill="#f4f531"
     stroke="none"
     id="g1922">
    <path
       d="M111 1116 l-23 -24 68 -82 c38 -45 69 -85 69 -89 0 -14 209 -261 220 -261 13 0 25 43 25 89 l0 27 -61 65 c-33 35 -104 117 -156 182 -53 64 -101 117 -107 117 -7 0 -23 -11 -35 -24z"
       id="path1918" />
    <path
       d="M516 658 c-3 -13 -6 -39 -6 -60 l0 -36 46 -48 c35 -35 185 -215 271 -323 2 -3 17 8 33 25 l30 29 -75 92 c-41 50 -75 94 -75 97 0 13 -195 246 -206 246 -6 0 -14 -10 -18 -22z"
       id="path1920" />
  </g>
  <g
     transform="translate(0.000000,135.000000) scale(0.100000,-0.100000)"
     fill="#333fdc"
     stroke="none"
     id="g1928">
    <path
       d="M313 1250 c-13 -5 -23 -13 -23 -17 0 -5 23 -88 50 -186 28 -98 50 -183 50 -189 0 -14 68 -98 79 -98 5 0 11 20 14 45 l7 46 -10 17 c-5 9 -33 101 -61 205 l-52 187 -16 -1 c-9 0 -26 -4 -38 -9z"
       id="path1924" />
    <path
       d="M496 530 l-7 -49 11 -18 c5 -10 30 -92 55 -183 25 -91 48 -173 51 -184 l6 -18 31 6 c17 4 35 10 40 15 l8 8 -51 176 c-27 97 -51 185 -53 195 -3 21 -64 102 -77 102 -4 0 -10 -22 -14 -50z"
       id="path1926" />
  </g>
  <g
     transform="translate(0.000000,135.000000) scale(0.100000,-0.100000)"
     fill="#9230c0"
     stroke="none"
     id="g1934">
    <path
       d="M502 1058 c-13 -90 -25 -183 -27 -208 -5 -54 -15 -118 -21 -142 l-5 -18 13 0 14 0 47 98 c26 53 46 106 45 117 -1 11 7 82 17 157 10 76 17 140 14 142 -2 2 -20 7 -39 11 l-36 6 -22 -163z"
       id="path1930" />
    <path
       d="M457 555 l-47 -95 0 -38 c0 -20 -9 -93 -19 -162 -10 -69 -18 -126 -16 -128 1 -1 19 -3 40 -5 l39 -2 23 155 c23 150 29 203 32 263 0 16 4 26 9 24 4 -3 7 15 7 39 l0 44 -10 0 c-6 0 -32 -43 -58 -95z"
       id="path1932" />
  </g>
  <g
     transform="translate(0.000000,135.000000) scale(0.100000,-0.100000)"
     fill="#fd2ea1"
     stroke="none"
     id="g1938">
    <path
       d="M541 855 c-41 -85 -78 -152 -82 -149 -5 3 -9 -2 -9 -11 0 -9 -5 -21 -10 -28 -13 -15 -150 -295 -150 -306 0 -8 44 -31 59 -31 9 0 71 96 71 111 0 15 92 194 101 197 5 2 9 10 9 18 0 8 4 14 10 14 5 0 13 12 16 28 4 15 36 81 71 148 34 66 63 124 63 127 0 7 -54 37 -67 37 -5 0 -42 -70 -82 -155z"
       id="path1936" />
  </g>
  <g
     transform="translate(0.000000,135.000000) scale(0.100000,-0.100000)"
     fill="#40fc14"
     stroke="none"
     id="g1944">
    <path
       d="M154 726 c-3 -8 -4 -27 -2 -43 l3 -28 135 -12 135 -12 12 16 12 16 -22 28 -22 28 -40 5 c-22 3 -77 8 -123 11 l-82 6 -6 -15z"
       id="path1940" />
    <path
       d="M542 693 l-10 -18 23 -29 23 -29 118 -9 118 -8 8 12 c4 7 8 25 8 40 l0 27 -17 5 c-10 2 -63 7 -118 11 -55 4 -110 9 -122 12 l-21 5 -10 -19z"
       id="path1942" />
  </g>
  <g
     transform="translate(0.000000,135.000000) scale(0.100000,-0.100000)"
     fill="#17cefd"
     stroke="none"
     id="g1950">
    <path
       d="M150 938 c-8 -13 -18 -28 -23 -35 l-7 -12 105 -77 c58 -42 105 -80 105 -85 0 -9 59 -23 67 -15 10 10 -141 187 -185 217 -24 16 -44 29 -45 29 -1 0 -9 -10 -17 -22z"
       id="path1946" />
    <path
       d="M605 584 c96 -120 113 -137 157 -170 l48 -34 21 29 c12 16 20 33 18 38 -2 4 -52 45 -112 91 l-110 83 -31 6 -31 6 40 -49z"
       id="path1948" />
  </g>
</svg>
